<svg xmlns="http://www.w3.org/2000/svg" viewBox="0 0 500 500"><g id="freepik--Shadow--inject-73"><ellipse id="freepik--path--inject-73" cx="250" cy="416.24" rx="193.89" ry="11.32" style="fill:#f5f5f5"></ellipse></g><g id="freepik--Character--inject-73"><path d="M140.88,154.4c-4.41,1.24-6.68,9.27-4.59,24.26s-3.7,34.88-3.7,34.88,24.09,7.5,39.23-2.09-6.44-28.6-6.44-28.6,8.78,6,11.76,14a7.71,7.71,0,0,0,.48-4.43,28.89,28.89,0,0,0-8.21-10.07c-6-4.75-1-16-5.16-22S157.88,149.65,140.88,154.4Z" style="fill:#263238"></path><path d="M179.4,188.25a.25.25,0,0,1-.22-.13c-1.4-2.7-4.81-4.34-7.81-5.79a29.86,29.86,0,0,1-3.63-1.94c-3.14-2.15-2.71-10.65-2.69-11a.23.23,0,0,1,.26-.23.23.23,0,0,1,.23.25c0,.09-.44,8.59,2.47,10.59a29.56,29.56,0,0,0,3.57,1.9c3.07,1.48,6.55,3.16,8,6a.24.24,0,0,1-.1.33Z" style="fill:#263238"></path><path d="M206.63,179.82l3.2-7.87s-1.91-2.7-1.36-4.65.63-10,1.84-10.1,5.42,2.28,6.68,3.65-1,8.87-1,10.38-1.84,2.29-1.84,2.29l-4.06,8.81Z" style="fill:#e4897b"></path><path d="M172.77,189.69c7.35,1.33,18.37,7.13,21.59,6.69,3.56-.5,14.17-23,14.17-23l5.22,3.31s-12.07,27.3-15,29.14-25.94-4.92-25.94-4.92Z" style="fill:#254FA4"></path><path d="M160.55,370.81c-6.17,7.75-11.72,14.79-16.55,19.92h0c-4.83,5.19-7.32,8.41-7.32,8.41l-4.79-2.75s4.42-7,10.42-16.63c5.09-8.18,11.33-18.27,17-27.62,7.33-12.08,13.69-22.92,15.38-26.8,1.19-2.76-2.05-13.34-5.64-23.32-3.65-10.16-7.65-19.7-7.65-19.7l13-22.1s5.3,14.71,10,30.23c3.11,10.15,5.93,20.66,6.88,27.64C192.69,327.84,175.86,351.54,160.55,370.81Z" style="fill:#e4897b"></path><path d="M160.59,370.81c-6.17,7.75-12.09,14.79-16.5,19.92-.63-3.15-1.27-6.89-1.77-11,5.09-8.18,11.33-18.27,17-27.62A106.84,106.84,0,0,0,160.59,370.81Z" style="opacity:0.2;isolation:isolate"></path><path d="M184.47,290.46,169.05,302c-3.64-10.16-7.65-19.7-7.65-19.7l13-22.1S179.75,274.94,184.47,290.46Z" style="opacity:0.2;isolation:isolate"></path><path d="M157.54,410.43l-5.56.73s-8-39.27-7.74-71.66a276.48,276.48,0,0,1-6.92-32.62c-1.95-13.26-2.92-28-.33-39.06l19.34,8.71.39,29,.33,24.17Z" style="fill:#e4897b"></path><path d="M156.72,305.53l-19.4,1.35c-1.95-13.26-2.92-28-.33-39.06l19.34,8.71Z" style="opacity:0.2;isolation:isolate"></path><path d="M132.21,393.35c.57-.41,5.39,6.8,5.39,6.8s-1.07,7.52,1.1,12.37-2,4.43-5.56-.16-6.18-8.1-8.68-11.36S126.31,397.65,132.21,393.35Z" style="fill:#263238"></path><path d="M139.23,405.59c-1.09-.25-1.8-3.37-1.93-4a.28.28,0,0,1,0-.09h0a.14.14,0,0,1,0-.07h0l.05-.06h0l.08-.05c.1,0,2.13-.67,3.23,0a1.37,1.37,0,0,1,.66.91.8.8,0,0,1-.24.9c-.37.25-1.11,0-1.83-.29a3.39,3.39,0,0,1,1,1.67.9.9,0,0,1-.18.72.92.92,0,0,1-.71.41Zm.1-.44s.18,0,.4-.23a.49.49,0,0,0,.09-.38c-.09-.72-1.17-1.76-1.93-2.4C138.24,403.48,138.82,405,139.33,405.15Zm-1.25-3.51c1.16.72,2.45,1.3,2.77,1.08.1-.07.07-.29,0-.42a.87.87,0,0,0-.44-.61,2.13,2.13,0,0,0-1-.22A6.24,6.24,0,0,0,138.08,401.64Z" style="fill:#254FA4"></path><path d="M150,407.61c0-.71,8.67-.15,8.67-.15s5.32,5.41,10.49,6.63,2.28,4.32-3.5,4.32h-14.3C147.27,418.41,149.83,414.91,150,407.61Z" style="fill:#263238"></path><path d="M159.64,408.57a.18.18,0,0,1-.07-.05h0l0-.06h0a.24.24,0,0,1,0-.08h0a.15.15,0,0,1,0-.09c0-.1.76-2.11,1.93-2.59a1.29,1.29,0,0,1,1.12,0c.39.19.58.43.56.73,0,.45-.64.91-1.34,1.28a3.59,3.59,0,0,1,1.94.21,1,1,0,0,1,.46.59.82.82,0,0,1-.21.92,1.18,1.18,0,0,1-.76.21A10.82,10.82,0,0,1,159.64,408.57Zm.79-.14c1.28.54,2.86,1,3.27.68,0,0,.15-.12.06-.46a.48.48,0,0,0-.25-.3,2.11,2.11,0,0,0-1-.19A10.45,10.45,0,0,0,160.43,408.43Zm1.2-2.31a3.72,3.72,0,0,0-1.48,1.86c1.28-.49,2.52-1.16,2.54-1.55,0-.12-.19-.23-.31-.29a1,1,0,0,0-.4-.09A.91.91,0,0,0,161.63,406.12Z" style="fill:#254FA4"></path><path d="M165.31,296.59l20.91-11c-6.58-20-12.51-31.32-12.51-31.32C153.16,257.83,155,274.07,155,274.07S160.27,284.92,165.31,296.59Z" style="fill:#254FA4"></path><path d="M164,293.5l1.34,3.09,20.91-11c-6.58-20-12.5-31.32-12.5-31.32-12.69,2.18-16.83,9.2-18.15,14.25a16.72,16.72,0,0,0-.54,5.51S159.38,283.08,164,293.5Z" style="fill:#fff;opacity:0.6000000000000001;isolation:isolate"></path><path d="M164,293.5c-4.59-10.42-8.94-19.43-8.94-19.43a16.72,16.72,0,0,1,.54-5.51,6.57,6.57,0,0,1,2.15-.9S163.3,276.43,164,293.5Z" style="opacity:0.2;isolation:isolate"></path><path d="M158.84,301.1l-.73-33.44,16.58-4.84s-1.3-15.34-3.24-22.91c0,0-26.92-6.7-31,2.42,0,0,0,.15,0,.2l-.07.08s-7.73,13.61-5.42,58.49Z" style="fill:#254FA4"></path><path d="M158.84,301.1l-.73-33.44,16.58-4.84s-1.3-15.34-3.24-22.91c0,0-26.92-6.7-31,2.42,0,0,0,.15,0,.2l-.07.08s-7.73,13.61-5.42,58.49Z" style="fill:#fff;opacity:0.6000000000000001;isolation:isolate"></path><polygon points="140.13 237.71 140.13 242.27 171.07 239.88 171.07 234.48 140.13 237.71"></polygon><rect x="146.68" y="235.82" width="1.55" height="7.89" transform="translate(-12.04 7.84) rotate(-2.93)" style="fill:#254FA4"></rect><rect x="155.21" y="235.78" width="6.84" height="5.19" transform="translate(-20.63 15.1) rotate(-5.12)" style="fill:#fff"></rect><rect x="168.31" y="233.73" width="1.55" height="7.89" transform="translate(-11.9 8.93) rotate(-2.92)" style="fill:#254FA4"></rect><rect x="146.68" y="235.82" width="1.55" height="7.89" transform="translate(-12.04 7.84) rotate(-2.93)" style="fill:#fff;opacity:0.6000000000000001;isolation:isolate"></rect><rect x="168.31" y="233.73" width="1.55" height="7.89" transform="translate(-11.9 8.93) rotate(-2.92)" style="fill:#fff;opacity:0.6000000000000001;isolation:isolate"></rect><polygon points="132.88 299.73 160.19 299.49 159.71 303.6 134.09 303.36 132.88 299.73" style="fill:#254FA4"></polygon><polygon points="163.58 296.35 186.3 284.02 187.51 287.64 165.51 298.52 163.58 296.35" style="fill:#254FA4"></polygon><path d="M172,236.41l-30.94,2.68c-.73-11.5-1.47-18.92-8.28-39.41-.58-1.8-1.23-3.7-1.92-5.71a92.57,92.57,0,0,1,12.83-3.1,99.74,99.74,0,0,1,13.89-1.46c6,0,12.93.63,12.93.63s1,.24,1.61,6.61C172.71,202.65,173.26,214.62,172,236.41Z" style="fill:#263238"></path><path d="M172.14,196.65c-11.62,5.75-29.43,4.41-39.34,3-.58-1.8-1.23-3.7-1.92-5.71a92.57,92.57,0,0,1,12.83-3.1,99.74,99.74,0,0,1,13.89-1.46c6,0,12.93.63,12.93.63S171.52,190.28,172.14,196.65Z" style="fill:#e4897b"></path><path d="M137.37,190.85S145.7,201.49,146,213s-7.44,64.75-7.44,64.75l-9.28-2.63s7-41,0-80.52Z" style="fill:#254FA4"></path><path d="M163.19,189.69s3.39,11,2.94,19,8.13,47,8.13,47l2.5,6-2.48-24.21s1.5-35.53-1.51-47.72Z" style="fill:#254FA4"></path><path d="M125.53,238.38l7.47,5.86s1.27,1.24,1.45,4.37-3.35,12-5.54,10.95-5.36-4.45-5.36-5.84,5.68-6.17,5.68-6.17l-6.67-5.5Z" style="fill:#e4897b"></path><path d="M129.23,194.64C118.41,202.1,103.57,224.05,106,229s19.78,16.63,19.78,16.63l3.18-5.2s-13.47-11.53-14.66-14.55,17.64-18.68,17.64-18.68,1.66-4.21.91-7.52A8.64,8.64,0,0,0,129.23,194.64Z" style="fill:#254FA4"></path><path d="M154.14,196.42c-7.69-1-10-4.27-10-4.27,3.15-3,2.57-7.33,1.77-10.06a15.15,15.15,0,0,0-.95-2.51l9.26,1.73a27.06,27.06,0,0,0-.36,3.9,11.79,11.79,0,0,0,.26,2.86c.63,2.77,2.2,2.8,2.2,2.8C158,193.91,154.14,196.42,154.14,196.42Z" style="fill:#e4897b"></path><path d="M153.86,185.21a11.79,11.79,0,0,0,.26,2.86c-3.67-.48-6.46-3.42-8.21-6a15.15,15.15,0,0,0-.95-2.51l9.26,1.73A27.06,27.06,0,0,0,153.86,185.21Z" style="opacity:0.2;isolation:isolate"></path><path d="M152.33,155.69c8,.3,10.48,4.71,10.76,13,.35,10.39-2.22,17.66-12.2,15.08C137.34,180.28,139,155.2,152.33,155.69Z" style="fill:#e4897b"></path><path d="M157.91,168.07a16.85,16.85,0,0,0,2.21,3.42,2.2,2.2,0,0,1-2.15.83Z" style="fill:#de5753"></path><path d="M153,167.23c0,.66-.38,1.19-.82,1.18s-.79-.54-.78-1.21.37-1.19.81-1.18S153,166.56,153,167.23Z" style="fill:#263238"></path><path d="M152,166.05l1.45-.55S152.75,166.7,152,166.05Z" style="fill:#263238"></path><path d="M161.23,167.2c0,.66-.37,1.19-.81,1.19s-.8-.55-.79-1.21.38-1.19.82-1.19S161.24,166.54,161.23,167.2Z" style="fill:#263238"></path><path d="M160.26,166l1.45-.54S161,166.68,160.26,166Z" style="fill:#263238"></path><path d="M149.6,163.11a.36.36,0,0,1-.27-.59,4.51,4.51,0,0,1,3.86-1.2.35.35,0,0,1,.29.41.36.36,0,0,1-.41.29,3.82,3.82,0,0,0-3.21,1A.35.35,0,0,1,149.6,163.11Z" style="fill:#263238"></path><path d="M162.17,162.68a.31.31,0,0,1-.2-.07,3.41,3.41,0,0,0-2.87-.73.34.34,0,0,1-.44-.23.35.35,0,0,1,.22-.44,4.07,4.07,0,0,1,3.5.83.35.35,0,0,1-.21.64Z" style="fill:#263238"></path><path d="M156.68,175.44a20.77,20.77,0,0,0-1,2.76l-.52-.06c-2.33-.33-3.31-1.25-3.68-2.17a3,3,0,0,1-.18-1.43,2.87,2.87,0,0,1,.18-.8,11,11,0,0,0,4.44,1.58C156.37,175.41,156.68,175.44,156.68,175.44Z" style="fill:#263238"></path><path d="M155.88,175.32l-.32.81c-2.2-.31-3.71-.83-4.3-1.59a2.87,2.87,0,0,1,.18-.8A11,11,0,0,0,155.88,175.32Z" style="fill:#fff"></path><path d="M155.12,178.14c-2.33-.33-3.31-1.25-3.68-2.17a7.65,7.65,0,0,1,2.52.87A2.88,2.88,0,0,1,155.12,178.14Z" style="fill:#de5753"></path><path d="M143,168.93s4-6.47,3.62-11.6c0,0,16.19-5.92,16.37,10.29,0,0,2.1-14.31-11.72-15.14s-14.51,19.4-7.6,25.7C143.71,178.18,140.56,173,143,168.93Z" style="fill:#263238"></path><path d="M144.29,170.68a3.54,3.54,0,0,0-3.68-3.37c-2.51.18-3.88,5.25,2.27,6.71C143.76,174.23,144.3,173.38,144.29,170.68Z" style="fill:#e4897b"></path><path d="M147.81,150.38c4.35-1.21,16-1.37,18.7,10.63l-1.62.81a25.53,25.53,0,0,0-8.7-2.58,19.66,19.66,0,0,0-2.25-3.22,18,18,0,0,1,0,3.06s-7.57,1.11-11,4.19c-5.32,4.83-5.64,7.89-5.64,7.89S133.65,154.31,147.81,150.38Z" style="fill:#263238"></path><path d="M167.63,160.85a.25.25,0,0,1-.23-.16c-1.38-4.14-3.74-7.06-7-8.67-6-3-13.06-.55-13.13-.53a.23.23,0,0,1-.31-.15.24.24,0,0,1,.15-.31c.07,0,7.34-2.49,13.51.55,3.4,1.67,5.84,4.68,7.27,8.95a.25.25,0,0,1-.16.31Z" style="fill:#263238"></path></g><g id="freepik--Device--inject-73"><rect x="211.88" y="106.16" width="173.6" height="312.25" rx="10.4" style="fill:#263238"></rect><path d="M379.63,116.62V407.39a4.26,4.26,0,0,1-4.32,4.25H221.6a3.81,3.81,0,0,1-3.86-3.9V116.28a3.43,3.43,0,0,1,3.3-3.57h38.43a2.7,2.7,0,0,1,2.48,1.73l1.59,3.91a2.68,2.68,0,0,0,2.47,1.71h65.43a2.67,2.67,0,0,0,2.47-1.68l1.59-3.94a2.72,2.72,0,0,1,2.48-1.73h37.88A3.88,3.88,0,0,1,379.63,116.62Z" style="fill:#254FA4"></path><path d="M371.25,112.71c-14.33,39.67-60.92,148.64-153.51,193.08V116.28a3.43,3.43,0,0,1,3.3-3.57h38.43a2.7,2.7,0,0,1,2.48,1.73l1.59,3.91a2.68,2.68,0,0,0,2.47,1.71h65.43a2.67,2.67,0,0,0,2.47-1.68l1.59-3.94a2.72,2.72,0,0,1,2.48-1.73Z" style="fill:#fff;opacity:0.1"></path><path d="M379.63,255.26V407.39a4.26,4.26,0,0,1-4.32,4.25H221.6a3.81,3.81,0,0,1-3.86-3.9V338.6C260.51,282.3,334,262.35,379.63,255.26Z" style="fill:#fff;opacity:0.1"></path><path d="M298.66,113.08a2.23,2.23,0,1,1-2.22-2.22A2.23,2.23,0,0,1,298.66,113.08Z" style="fill:#fff;opacity:0.6000000000000001;isolation:isolate"></path><path d="M303.15,113.08a1.42,1.42,0,1,1-1.42-1.42A1.42,1.42,0,0,1,303.15,113.08Z" style="fill:#fff;opacity:0.6000000000000001;isolation:isolate"></path><rect x="347.85" y="381.66" width="20.91" height="20.91" rx="2.83" style="opacity:0.5"></rect><rect x="318.04" y="381.66" width="20.91" height="20.91" rx="2.83" style="opacity:0.5"></rect><rect x="288.23" y="381.66" width="20.91" height="20.91" rx="2.83" style="opacity:0.5"></rect><rect x="258.42" y="381.66" width="20.91" height="20.91" rx="2.83" style="opacity:0.5"></rect><rect x="228.61" y="381.66" width="20.91" height="20.91" rx="2.83" style="opacity:0.5"></rect><path d="M365.84,393.32v-2.4l-1.23-.12a6.56,6.56,0,0,0-.92-2.21l.79-1-1.69-1.69-1,.79a6.56,6.56,0,0,0-2.21-.92l-.12-1.23h-2.39l-.12,1.23a6.56,6.56,0,0,0-2.21.92l-1-.79-1.69,1.69.79,1a6.36,6.36,0,0,0-.92,2.21l-1.24.12v2.4l1.24.11a6.17,6.17,0,0,0,.92,2.21l-.79,1,1.69,1.7,1-.8a6.17,6.17,0,0,0,2.21.92l.12,1.24h2.39l.12-1.24a6.17,6.17,0,0,0,2.21-.92l1,.8,1.69-1.7-.79-1a6.56,6.56,0,0,0,.92-2.21Zm-7.54,2a3.25,3.25,0,1,1,3.25-3.24A3.24,3.24,0,0,1,358.3,395.36Z" style="fill:#fff;opacity:0.9"></path><path d="M236.41,389.52l.44-.44a.68.68,0,0,1,1,0l4.3,4.31a.66.66,0,0,1,0,.94l-.44.44,2.5,2.49.65-.87a3.35,3.35,0,0,0-.31-4.38l-5.33-5.33a3.35,3.35,0,0,0-4.38-.31l-.87.66Z" style="fill:#fff"></path><rect x="232.24" y="388.36" width="4.55" height="1.23" rx="0.42" transform="translate(343.73 -51.9) rotate(45)" style="fill:#fff"></rect><rect x="239.93" y="396.06" width="4.55" height="1.23" rx="0.42" transform="translate(351.43 -55.08) rotate(45)" style="fill:#fff"></rect><path d="M271.87,388.43a3,3,0,1,1-3-3A3,3,0,0,1,271.87,388.43Z" style="fill:#fff"></path><path d="M274.66,398.8a.88.88,0,0,0,.87-1,6.75,6.75,0,0,0-13.31,0,.88.88,0,0,0,.87,1Z" style="fill:#fff"></path><path d="M332.57,388a5.77,5.77,0,1,0-.45,8.56l2.06,1.2-1.2-2.06A5.76,5.76,0,0,0,332.57,388Z" style="fill:#fff"></path><path d="M294.27,388.88a1.1,1.1,0,1,0,1.09,1.09A1.09,1.09,0,0,0,294.27,388.88Z" style="fill:#fff"></path><path d="M298.68,388.88a1.1,1.1,0,1,0,1.1,1.09A1.09,1.09,0,0,0,298.68,388.88Z" style="fill:#fff"></path><path d="M303.1,391.07A1.1,1.1,0,1,0,302,390,1.1,1.1,0,0,0,303.1,391.07Z" style="fill:#fff"></path><path d="M294.27,393.16a1.1,1.1,0,1,0,1.09,1.1A1.1,1.1,0,0,0,294.27,393.16Z" style="fill:#fff"></path><path d="M298.68,393.16a1.1,1.1,0,1,0,1.1,1.1A1.09,1.09,0,0,0,298.68,393.16Z" style="fill:#fff"></path><path d="M303.1,393.16a1.1,1.1,0,1,0,1.1,1.1A1.1,1.1,0,0,0,303.1,393.16Z" style="fill:#fff"></path><path d="M288.46,372.27h-4.24a1.84,1.84,0,0,1-1.84-1.85h0a1.84,1.84,0,0,1,1.84-1.84h4.24a1.84,1.84,0,0,1,1.84,1.84h0A1.84,1.84,0,0,1,288.46,372.27Z" style="fill:#fff"></path><path d="M300.8,372.77h-4.23a2.35,2.35,0,1,1,0-4.69h4.23a2.35,2.35,0,1,1,0,4.69Zm-4.23-3.69a1.35,1.35,0,1,0,0,2.69h4.23a1.35,1.35,0,1,0,0-2.69Z" style="fill:#fff"></path><path d="M313.14,372.77h-4.23a2.35,2.35,0,1,1,0-4.69h4.23a2.35,2.35,0,1,1,0,4.69Zm-4.23-3.69a1.35,1.35,0,1,0,0,2.69h4.23a1.35,1.35,0,1,0,0-2.69Z" style="fill:#fff"></path><path d="M362.17,155.06h-127a9.39,9.39,0,0,1-9.39-9.4h0a9.38,9.38,0,0,1,9.39-9.39h127a9.38,9.38,0,0,1,9.39,9.39h0A9.39,9.39,0,0,1,362.17,155.06Z" style="fill:#fff"></path><path d="M361.63,141.05a3.56,3.56,0,1,0,0,5A3.57,3.57,0,0,0,361.63,141.05Z" style="fill:none"></path><path d="M362.22,140.46a4.39,4.39,0,1,0-.32,6.48l.22.22a.82.82,0,0,0,.2.79l3,3a.82.82,0,0,0,1.17,0,.83.83,0,0,0,0-1.17l-3-3a.81.81,0,0,0-.79-.2l-.23-.23A4.38,4.38,0,0,0,362.22,140.46Zm-5.63,5.63a3.56,3.56,0,1,1,5,0A3.59,3.59,0,0,1,356.59,146.09Z" style="fill:#263238"></path><circle cx="249.32" cy="289.17" r="17.83" style="fill:#fff;opacity:0.5"></circle><circle cx="298.68" cy="289.17" r="17.83" style="fill:#fff;opacity:0.5"></circle><circle cx="348.05" cy="289.17" r="17.83" style="fill:#fff;opacity:0.5"></circle><circle cx="249.32" cy="338.25" r="17.83" style="fill:#fff;opacity:0.5"></circle><circle cx="298.68" cy="338.25" r="17.83" style="fill:#fff;opacity:0.5"></circle><circle cx="348.05" cy="338.25" r="17.83" style="fill:#fff;opacity:0.5"></circle><path d="M339.52,282.14v14.05a.77.77,0,0,0,1.08.7l15.53-7a.76.76,0,0,0,0-1.39l-15.53-7A.76.76,0,0,0,339.52,282.14Z" style="fill:#254FA4"></path><path d="M348.89,337.76l7.57-6.36a1.64,1.64,0,0,0-.5-.08H340.14a1.57,1.57,0,0,0-.49.08l7.57,6.36A1.31,1.31,0,0,0,348.89,337.76Z" style="fill:#254FA4"></path><path d="M349.53,338.52a2.3,2.3,0,0,1-3,0l-7.8-6.55a1.78,1.78,0,0,0-.44,1.17v10.22a1.81,1.81,0,0,0,1.81,1.81H356a1.82,1.82,0,0,0,1.82-1.81V333.14a1.78,1.78,0,0,0-.44-1.17Z" style="fill:#254FA4"></path><path d="M306.84,332.66h-4.31l-.78-2a.89.89,0,0,0-.83-.57h-4.47a.88.88,0,0,0-.83.57l-.78,2h-4.32a1.08,1.08,0,0,0-1.08,1.09v11.57a1.08,1.08,0,0,0,1.08,1.08h16.32a1.08,1.08,0,0,0,1.09-1.08V333.75A1.09,1.09,0,0,0,306.84,332.66Zm-8.16,11.07a4.1,4.1,0,1,1,4.11-4.1A4.1,4.1,0,0,1,298.68,343.73Z" style="fill:#254FA4"></path><path d="M258.4,346.32H240.23a1.77,1.77,0,0,1-1.77-1.77V331.94a1.77,1.77,0,0,1,1.77-1.77H258.4a1.77,1.77,0,0,1,1.77,1.77v12.61a1.61,1.61,0,0,1,0,.37A1.75,1.75,0,0,1,258.4,346.32Zm-18.17-15.15a.78.78,0,0,0-.77.77v12.61a.77.77,0,0,0,.77.77H258.4a.77.77,0,0,0,.75-.6.59.59,0,0,0,0-.17V331.94a.77.77,0,0,0-.77-.77Z" style="fill:#254FA4"></path><path d="M259.64,339.58v5.23a1.27,1.27,0,0,1-1.24,1H240.23a1.27,1.27,0,0,1-1.27-1.27v-1.32l6-6,3.75,3.76,6.14-6.13Z" style="fill:#254FA4"></path><circle cx="244.21" cy="333.74" r="1.09" style="fill:#254FA4"></circle><path d="M243.14,281.7v1.52h0V293.4a2.92,2.92,0,0,0-1.54-.42,1.9,1.9,0,1,0,0,3.66c1.34,0,2.43-.82,2.43-1.83v-8.88h14.53v7.47A2.86,2.86,0,0,0,257,293a1.9,1.9,0,1,0,2.42,1.83V281.7Z" style="fill:#254FA4"></path><polygon points="298.76 298.96 304.35 293.37 298.76 293.37 298.76 298.96" style="fill:#254FA4"></polygon><polygon points="297.65 292.26 304.35 292.26 304.35 279.38 288.99 279.38 288.99 298.96 297.65 298.96 297.65 292.26" style="fill:#254FA4"></polygon><rect x="306.86" y="282.21" width="1.52" height="11.01" style="fill:#254FA4"></rect><polygon points="306.86 294 307.62 296.26 308.38 294 306.86 294" style="fill:#254FA4"></polygon><path d="M279.18,191.57c0-7.49,4-11.76,9.4-11.76s9.35,4.27,9.35,11.76-4,11.75-9.35,11.75S279.18,199.06,279.18,191.57Zm15.47,0c0-5.88-2.5-8.84-6.07-8.84s-6.11,3-6.11,8.84,2.49,8.83,6.11,8.83S294.65,197.45,294.65,191.57Z" style="fill:#fff"></path><path d="M318.19,191.27c0,7.85-4.43,12-10.87,12a11,11,0,0,1-5.71-1.34l1.24-2.56a8.18,8.18,0,0,0,4.44,1.08c4.66,0,7.62-2.92,7.62-8.67V191c-1.35,2-3.78,3-6.64,3-4.56,0-7.85-2.72-7.85-7,0-4.43,3.55-7.26,8.12-7.26C314.71,179.81,318.19,184,318.19,191.27Zm-4-4.36c0-2.37-1.9-4.44-5.48-4.44-3,0-5.06,1.74-5.06,4.47s2,4.43,5.22,4.43S314.15,189.43,314.15,186.91Z" style="fill:#fff"></path><path d="M299.18,227h-4.37v5.65h-3.18V227H278.86v-2.3l11.75-15h3.55l-11.27,14.52h8.84v-5h3.08v5h4.37Z" style="fill:#fff"></path><path d="M317.17,225.75c0,4-2.82,7.16-8.7,7.16a13.17,13.17,0,0,1-8.44-2.79l1.51-2.59a10.36,10.36,0,0,0,6.9,2.46c3.48,0,5.45-1.61,5.45-4.1s-1.64-4.21-7-4.21h-5.22l1.21-12h13v2.86H305.68l-.63,6.31h2.57C314.48,218.83,317.17,221.68,317.17,225.75Z" style="fill:#fff"></path><path d="M281.5,246.51l.21-.44a2.07,2.07,0,0,0,1.31.46c.68,0,1-.27,1-.61,0-1-2.4-.36-2.4-1.83,0-.62.47-1.14,1.51-1.14a2.4,2.4,0,0,1,1.28.35l-.19.46a2,2,0,0,0-1.09-.32c-.67,0-1,.28-1,.62,0,1,2.4.37,2.4,1.82,0,.61-.48,1.13-1.53,1.13A2.38,2.38,0,0,1,281.5,246.51Z" style="fill:#fff"></path><path d="M285.35,245.25V243h.56v2.23c0,.88.41,1.27,1.12,1.27s1.12-.39,1.12-1.27V243h.55v2.25a1.68,1.68,0,1,1-3.35,0Z" style="fill:#fff"></path><path d="M293.27,243v4h-.46l-2.38-3v3h-.57v-4h.47l2.38,2.95V243Z" style="fill:#fff"></path><path d="M294.89,246.61a1,1,0,0,1-.1.4l-.26.79h-.36l.21-.84a.36.36,0,0,1-.24-.35.38.38,0,0,1,.38-.39A.36.36,0,0,1,294.89,246.61Z" style="fill:#fff"></path><path d="M297.27,243h1.67a2,2,0,1,1,0,4h-1.67Zm1.64,3.47a1.49,1.49,0,1,0,0-3h-1.07v3Z" style="fill:#fff"></path><path d="M304.83,246.47V247H302v-4h2.79v.49h-2.23v1.22h2v.48h-2v1.28Z" style="fill:#fff"></path><path d="M305.41,245a2,2,0,0,1,2.1-2,2,2,0,0,1,1.51.62l-.37.36a1.45,1.45,0,0,0-1.11-.47,1.52,1.52,0,1,0,1.11,2.57l.37.35a2,2,0,0,1-1.51.63A2,2,0,0,1,305.41,245Z" style="fill:#fff"></path><path d="M312.26,243v4h-.56v-3.47h-.89V243Z" style="fill:#fff"></path><path d="M315.84,245.8c0,.66-.49,1.21-1.5,1.21a2.22,2.22,0,0,1-1.45-.48l.26-.45a1.75,1.75,0,0,0,1.19.42c.6,0,.94-.27.94-.7s-.3-.69-1-.69H314v-.4l1-1.22h-1.91V243h2.61v.38l-1,1.28C315.44,244.74,315.84,245.18,315.84,245.8Z" style="fill:#fff"></path><rect x="235.58" y="121.75" width="2" height="2.67" transform="translate(473.16 246.17) rotate(180)" style="fill:#fff;opacity:0.6000000000000001;isolation:isolate"></rect><rect x="232.32" y="120.86" width="2" height="3.55" transform="translate(466.64 245.28) rotate(180)" style="fill:#fff;opacity:0.6000000000000001;isolation:isolate"></rect><rect x="229.06" y="119.98" width="2" height="4.44" transform="translate(460.13 244.39) rotate(180)" style="fill:#fff;opacity:0.6000000000000001;isolation:isolate"></rect><rect x="225.81" y="119.09" width="2" height="5.33" transform="translate(453.61 243.5) rotate(180)" style="fill:#fff;opacity:0.6000000000000001;isolation:isolate"></rect><rect x="360.12" y="120.78" width="1.19" height="2.67" style="fill:#fff;opacity:0.6000000000000001;isolation:isolate"></rect><rect x="362.12" y="119.81" width="9.44" height="4.61" transform="translate(733.68 244.23) rotate(180)" style="fill:#fff;opacity:0.6000000000000001;isolation:isolate"></rect></g></svg>